<svg width="29" height="29" viewBox="0 0 29 29" fill="none" xmlns="http://www.w3.org/2000/svg">
<rect x="14.1421" width="20" height="20" rx="4" transform="rotate(45 14.1421 0)" fill="#F76666"/>
<g clip-path="url(#clip0)">
<path d="M16 12C15.9062 11.9063 15.7791 11.8536 15.6465 11.8536C15.5139 11.8536 15.3867 11.9063 15.293 12L14 13.293L12.707 12C12.6127 11.909 12.4864 11.8586 12.3553 11.8597C12.2242 11.8608 12.0988 11.9134 12.0061 12.0061C11.9134 12.0988 11.8608 12.2242 11.8596 12.3553C11.8585 12.4864 11.9089 12.6127 12 12.707L13.293 14L12 15.293C11.9089 15.3873 11.8585 15.5136 11.8596 15.6447C11.8608 15.7758 11.9134 15.9012 12.0061 15.9939C12.0988 16.0866 12.2242 16.1392 12.3553 16.1404C12.4864 16.1415 12.6127 16.0911 12.707 16L14 14.707L15.293 16C15.3873 16.0911 15.5136 16.1415 15.6447 16.1404C15.7758 16.1392 15.9012 16.0866 15.9939 15.9939C16.0866 15.9012 16.1392 15.7758 16.1403 15.6447C16.1415 15.5136 16.0911 15.3873 16 15.293L14.707 14L16 12.707C16.0937 12.6133 16.1464 12.4861 16.1464 12.3535C16.1464 12.2209 16.0937 12.0938 16 12Z" fill="white"/>
<path d="M14 8C12.8133 8 11.6533 8.35189 10.6666 9.01118C9.67989 9.67047 8.91085 10.6075 8.45673 11.7039C8.0026 12.8003 7.88378 14.0067 8.11529 15.1705C8.3468 16.3344 8.91825 17.4035 9.75736 18.2426C10.5965 19.0818 11.6656 19.6532 12.8295 19.8847C13.9933 20.1162 15.1997 19.9974 16.2961 19.5433C17.3925 19.0892 18.3295 18.3201 18.9888 17.3334C19.6481 16.3467 20 15.1867 20 14C19.9983 12.4092 19.3656 10.8841 18.2407 9.75926C17.1159 8.63441 15.5908 8.00172 14 8V8ZM14 19C13.0111 19 12.0444 18.7068 11.2222 18.1573C10.3999 17.6079 9.75904 16.827 9.38061 15.9134C9.00217 14.9998 8.90315 13.9945 9.09608 13.0245C9.289 12.0546 9.76521 11.1637 10.4645 10.4645C11.1637 9.7652 12.0546 9.289 13.0246 9.09607C13.9945 8.90315 14.9998 9.00216 15.9134 9.3806C16.8271 9.75904 17.6079 10.3999 18.1574 11.2221C18.7068 12.0444 19 13.0111 19 14C18.9985 15.3256 18.4713 16.5966 17.5339 17.5339C16.5966 18.4713 15.3256 18.9985 14 19Z" fill="white"/>
</g>
<defs>
<clipPath id="clip0">
<rect width="12" height="12" fill="white" transform="translate(8 8)"/>
</clipPath>
</defs>
</svg>
