<svg width="20" height="16" viewBox="0 0 20 16" fill="none" xmlns="http://www.w3.org/2000/svg">
<g clip-path="url(#clip0_2814_3301)">
<mask id="mask0_2814_3301" style="mask-type:luminance" maskUnits="userSpaceOnUse" x="0" y="0" width="20" height="16">
<rect y="0.5" width="20" height="15" fill="white"/>
</mask>
<g mask="url(#mask0_2814_3301)">
<path fill-rule="evenodd" clip-rule="evenodd" d="M0 0.5H20V15.5H0V0.5Z" fill="#F7FCFF"/>
<rect x="0.0169678" y="3.9375" width="20" height="1.875" fill="#4564F9"/>
<path fill-rule="evenodd" clip-rule="evenodd" d="M0 0.5H20V2.375H0V0.5Z" fill="#4564F9"/>
<rect x="-0.0368042" y="7.375" width="20" height="1.875" fill="#4564F9"/>
<rect x="0.0697937" y="10.75" width="20" height="1.875" fill="#4564F9"/>
<rect x="0.0634155" y="13.9375" width="20" height="1.875" fill="#4564F9"/>
<path fill-rule="evenodd" clip-rule="evenodd" d="M0 0.5H10V9.25H0V0.5Z" fill="#4564F9"/>
<path fill-rule="evenodd" clip-rule="evenodd" d="M4.04442 0.5H6.02211V3.9375H10V6.30399H6.02211V9.875H4.04442V6.30399H0V3.9375H4.04442V0.5Z" fill="#F7FCFF"/>
</g>
</g>
<defs>
<clipPath id="clip0_2814_3301">
<rect y="0.5" width="20" height="15" rx="1.5" fill="white"/>
</clipPath>
</defs>
</svg>
