<svg width="29" height="29" viewBox="0 0 29 29" fill="none" xmlns="http://www.w3.org/2000/svg">
<rect x="14.1421" width="20" height="20" rx="4" transform="rotate(45 14.1421 0)" fill="#31B5F7"/>
<g clip-path="url(#clip0)">
<path d="M14 8C12.8133 8 11.6533 8.35189 10.6666 9.01118C9.67989 9.67047 8.91085 10.6075 8.45673 11.7039C8.0026 12.8003 7.88378 14.0067 8.11529 15.1705C8.3468 16.3344 8.91825 17.4035 9.75736 18.2426C10.5965 19.0818 11.6656 19.6532 12.8295 19.8847C13.9933 20.1162 15.1997 19.9974 16.2961 19.5433C17.3925 19.0892 18.3295 18.3201 18.9888 17.3334C19.6481 16.3467 20 15.1867 20 14C19.9983 12.4092 19.3656 10.8841 18.2407 9.75926C17.1159 8.63441 15.5908 8.00172 14 8V8ZM14 19C13.0111 19 12.0444 18.7068 11.2222 18.1573C10.3999 17.6079 9.75904 16.827 9.38061 15.9134C9.00217 14.9998 8.90315 13.9945 9.09608 13.0245C9.289 12.0546 9.76521 11.1637 10.4645 10.4645C11.1637 9.7652 12.0546 9.289 13.0246 9.09607C13.9945 8.90315 14.9998 9.00216 15.9134 9.3806C16.8271 9.75904 17.6079 10.3999 18.1574 11.2221C18.7068 12.0444 19 13.0111 19 14C18.9985 15.3256 18.4713 16.5966 17.5339 17.5339C16.5966 18.4713 15.3256 18.9985 14 19Z" fill="white"/>
<path d="M14 13H13.5C13.3674 13 13.2402 13.0527 13.1464 13.1464C13.0527 13.2402 13 13.3674 13 13.5C13 13.6326 13.0527 13.7598 13.1464 13.8536C13.2402 13.9473 13.3674 14 13.5 14H14V17C14 17.1326 14.0527 17.2598 14.1464 17.3536C14.2402 17.4473 14.3674 17.5 14.5 17.5C14.6326 17.5 14.7598 17.4473 14.8536 17.3536C14.9473 17.2598 15 17.1326 15 17V14C15 13.7348 14.8946 13.4804 14.7071 13.2929C14.5196 13.1054 14.2652 13 14 13Z" fill="white"/>
<path d="M14 12C14.4142 12 14.75 11.6642 14.75 11.25C14.75 10.8358 14.4142 10.5 14 10.5C13.5858 10.5 13.25 10.8358 13.25 11.25C13.25 11.6642 13.5858 12 14 12Z" fill="white"/>
</g>
<defs>
<clipPath id="clip0">
<rect width="12" height="12" fill="white" transform="translate(8 8)"/>
</clipPath>
</defs>
</svg>
