<svg width="21" height="24" viewBox="0 0 21 24" fill="none" xmlns="http://www.w3.org/2000/svg">
<g clip-path="url(#clip0_2814_3291)">
<path d="M15.5682 21.3152C15.5682 20.5387 15.8288 19.8906 16.35 19.3712C16.5981 19.1189 16.8951 18.9198 17.223 18.7863C17.5508 18.6527 17.9024 18.5874 18.2564 18.5943C18.6127 18.5884 18.9665 18.6541 19.2968 18.7875C19.6271 18.921 19.9272 19.1195 20.1791 19.3712C20.71 19.8885 20.9754 20.5365 20.9754 21.3152C20.9828 21.6711 20.9157 22.0247 20.7786 22.3532C20.6415 22.6818 20.4373 22.9783 20.1791 23.2236C19.927 23.4751 19.6269 23.6733 19.2966 23.8066C18.9664 23.9399 18.6126 24.0056 18.2564 23.9996C17.9025 24.0032 17.5514 23.9362 17.2237 23.8026C16.896 23.6689 16.5982 23.4714 16.3479 23.2214C16.0976 22.9714 15.8997 22.6741 15.7658 22.3468C15.6319 22.0195 15.5648 21.6688 15.5682 21.3152Z" fill="#FF2458"/>
<path d="M15.1584 24H10.406L4.17881 15.3584L4.1822 24H0V0H4.1822L4.17881 15.0307L9.75055 7.61775H14.7487L9.01311 15.3174L15.1584 24Z" fill="#1C2964"/>
</g>
<defs>
<clipPath id="clip0_2814_3291">
<rect width="21" height="24" fill="white"/>
</clipPath>
</defs>
</svg>
