<svg width="29" height="29" viewBox="0 0 29 29" fill="none" xmlns="http://www.w3.org/2000/svg">
<rect x="14.1421" width="20" height="20" rx="4" transform="rotate(45 14.1421 0)" fill="#2ECD8E"/>
<g clip-path="url(#clip0)">
<path d="M19.1596 10.2155L12.2501 17.1245C12.2036 17.1711 12.1484 17.2081 12.0876 17.2334C12.0268 17.2586 11.9616 17.2716 11.8958 17.2716C11.83 17.2716 11.7648 17.2586 11.704 17.2334C11.6432 17.2081 11.588 17.1711 11.5416 17.1245L8.86956 14.45C8.82311 14.4034 8.7679 14.3664 8.70711 14.3411C8.64632 14.3159 8.58114 14.3029 8.51531 14.3029C8.44948 14.3029 8.3843 14.3159 8.32351 14.3411C8.26272 14.3664 8.20752 14.4034 8.16106 14.45C8.11442 14.4965 8.07742 14.5517 8.05217 14.6125C8.02691 14.6732 8.01392 14.7384 8.01392 14.8043C8.01392 14.8701 8.02691 14.9353 8.05217 14.9961C8.07742 15.0568 8.11442 15.112 8.16106 15.1585L10.8341 17.831C11.116 18.1125 11.4982 18.2705 11.8966 18.2705C12.295 18.2705 12.6771 18.1125 12.9591 17.831L19.8681 10.9235C19.9146 10.8771 19.9516 10.8219 19.9768 10.7611C20.002 10.7004 20.015 10.6353 20.015 10.5695C20.015 10.5037 20.002 10.4386 19.9768 10.3779C19.9516 10.3171 19.9146 10.2619 19.8681 10.2155C19.8216 10.1689 19.7664 10.1319 19.7056 10.1066C19.6448 10.0814 19.5796 10.0684 19.5138 10.0684C19.448 10.0684 19.3828 10.0814 19.322 10.1066C19.2612 10.1319 19.206 10.1689 19.1596 10.2155Z" fill="white"/>
</g>
<defs>
<clipPath id="clip0">
<rect width="12" height="12" fill="white" transform="translate(8 8)"/>
</clipPath>
</defs>
</svg>
