<svg width="29" height="29" viewBox="0 0 29 29" fill="none" xmlns="http://www.w3.org/2000/svg">
<rect x="14.1421" width="20" height="20" rx="4" transform="rotate(45 14.1421 0)" fill="#FAB721"/>
<g clip-path="url(#clip0)">
<path d="M14 8C12.8133 8 11.6533 8.35189 10.6666 9.01118C9.67989 9.67047 8.91085 10.6075 8.45673 11.7039C8.0026 12.8003 7.88378 14.0067 8.11529 15.1705C8.3468 16.3344 8.91825 17.4035 9.75736 18.2426C10.5965 19.0818 11.6656 19.6532 12.8295 19.8847C13.9933 20.1162 15.1997 19.9974 16.2961 19.5433C17.3925 19.0892 18.3295 18.3201 18.9888 17.3334C19.6481 16.3467 20 15.1867 20 14C19.9983 12.4092 19.3656 10.8841 18.2407 9.75926C17.1159 8.63441 15.5908 8.00172 14 8V8ZM14 19C13.0111 19 12.0444 18.7068 11.2222 18.1573C10.3999 17.6079 9.75904 16.827 9.38061 15.9134C9.00217 14.9998 8.90315 13.9945 9.09608 13.0245C9.289 12.0546 9.76521 11.1637 10.4645 10.4645C11.1637 9.7652 12.0546 9.289 13.0246 9.09607C13.9945 8.90315 14.9998 9.00216 15.9134 9.3806C16.8271 9.75904 17.6079 10.3999 18.1574 11.2221C18.7068 12.0444 19 13.0111 19 14C18.9985 15.3256 18.4713 16.5966 17.5339 17.5339C16.5966 18.4713 15.3256 18.9985 14 19Z" fill="white"/>
<path d="M14 10.5C13.8674 10.5 13.7402 10.5527 13.6464 10.6464C13.5527 10.7402 13.5 10.8674 13.5 11V15C13.5 15.1326 13.5527 15.2598 13.6464 15.3536C13.7402 15.4473 13.8674 15.5 14 15.5C14.1326 15.5 14.2598 15.4473 14.3536 15.3536C14.4473 15.2598 14.5 15.1326 14.5 15V11C14.5 10.8674 14.4473 10.7402 14.3536 10.6464C14.2598 10.5527 14.1326 10.5 14 10.5Z" fill="white"/>
<path d="M14.5 17C14.5 16.7239 14.2761 16.5 14 16.5C13.7239 16.5 13.5 16.7239 13.5 17C13.5 17.2761 13.7239 17.5 14 17.5C14.2761 17.5 14.5 17.2761 14.5 17Z" fill="white"/>
</g>
<defs>
<clipPath id="clip0">
<rect width="12" height="12" fill="white" transform="translate(8 8)"/>
</clipPath>
</defs>
</svg>
